<svg xmlns="http://www.w3.org/2000/svg" viewBox="0 0 64 64">
  <defs>
    <linearGradient id="bg" x1="0%" y1="0%" x2="100%" y2="100%">
      <stop offset="0%" style="stop-color:#2563eb"/>
      <stop offset="100%" style="stop-color:#7c3aed"/>
    </linearGradient>
  </defs>
  <rect width="64" height="64" rx="14" fill="url(#bg)"/>
  <g transform="translate(10, 14)" fill="white">
    <path d="M36 22c0-7.2-5.8-13-13-13-5.5 0-10.2 3.4-12.1 8.2C4.7 17.8 0 22.8 0 29c0 6.6 5.4 12 12 12h22c5.5 0 10-4.5 10-10 0-5.1-3.8-9.3-8.7-9.9C35.7 23 36 22.5 36 22z" opacity="0.95"/>
    <path d="M36 22c0-7.2-5.8-13-13-13-5.5 0-10.2 3.4-12.1 8.2C4.7 17.8 0 22.8 0 29c0 6.6 5.4 12 12 12h22c5.5 0 10-4.5 10-10 0-5.1-3.8-9.3-8.7-9.9C35.7 23 36 22.5 36 22z" fill="none" stroke="white" stroke-width="1.5" opacity="0.3"/>
  </g>
  <text x="32" y="52" text-anchor="middle" font-family="Arial,sans-serif" font-weight="bold" font-size="11" fill="white">HUB</text>
</svg>